<svg id="visual" viewBox="0 0 900 100" width="900" height="100" xmlns="http://www.w3.org/2000/svg" xmlns:xlink="http://www.w3.org/1999/xlink" version="1.1"><rect x="0" y="0" width="900" height="100" fill="#dbcfff"></rect><path d="M0 63L7.8 59.7C15.7 56.3 31.3 49.7 47.2 48.7C63 47.7 79 52.3 94.8 54.5C110.7 56.7 126.3 56.3 142 55.7C157.7 55 173.3 54 189.2 54.2C205 54.3 221 55.7 236.8 53.3C252.7 51 268.3 45 284.2 43C300 41 316 43 331.8 43.3C347.7 43.7 363.3 42.3 379 42.3C394.7 42.3 410.3 43.7 426.2 45C442 46.3 458 47.7 473.8 49.5C489.7 51.3 505.3 53.7 521 52.8C536.7 52 552.3 48 568.2 45.5C584 43 600 42 615.8 43.3C631.7 44.7 647.3 48.3 663.2 49.7C679 51 695 50 710.8 47.7C726.7 45.3 742.3 41.7 758 41.3C773.7 41 789.3 44 805.2 43.7C821 43.3 837 39.7 852.8 38.5C868.7 37.3 884.3 38.7 892.2 39.3L900 40" fill="none" stroke-linecap="round" stroke-linejoin="miter" stroke="#2c20a0" stroke-width="40"></path></svg>