<svg id="visual" viewBox="0 0 900 50" width="900" height="50" xmlns="http://www.w3.org/2000/svg" xmlns:xlink="http://www.w3.org/1999/xlink" version="1.1"><rect x="0" y="0" width="900" height="50" fill="#c8bceb"></rect><path d="M0 19L7.8 20.3C15.7 21.7 31.3 24.3 47.2 25.3C63 26.3 79 25.7 94.8 26C110.7 26.3 126.3 27.7 142 27.3C157.7 27 173.3 25 189.2 24.5C205 24 221 25 236.8 26.2C252.7 27.3 268.3 28.7 284.2 27.5C300 26.3 316 22.7 331.8 20.8C347.7 19 363.3 19 379 20.5C394.7 22 410.3 25 426.2 26.8C442 28.7 458 29.3 473.8 29C489.7 28.7 505.3 27.3 521 25.8C536.7 24.3 552.3 22.7 568.2 22.2C584 21.7 600 22.3 615.8 23C631.7 23.7 647.3 24.3 663.2 23.8C679 23.3 695 21.7 710.8 21C726.7 20.3 742.3 20.7 758 22.5C773.7 24.3 789.3 27.7 805.2 28.3C821 29 837 27 852.8 26.7C868.7 26.3 884.3 27.7 892.2 28.3L900 29L900 0L892.2 0C884.3 0 868.7 0 852.8 0C837 0 821 0 805.2 0C789.3 0 773.7 0 758 0C742.3 0 726.7 0 710.8 0C695 0 679 0 663.2 0C647.3 0 631.7 0 615.8 0C600 0 584 0 568.2 0C552.3 0 536.7 0 521 0C505.3 0 489.7 0 473.8 0C458 0 442 0 426.2 0C410.3 0 394.7 0 379 0C363.3 0 347.7 0 331.8 0C316 0 300 0 284.2 0C268.3 0 252.7 0 236.8 0C221 0 205 0 189.2 0C173.3 0 157.7 0 142 0C126.3 0 110.7 0 94.8 0C79 0 63 0 47.2 0C31.3 0 15.7 0 7.8 0L0 0Z" fill="#2c20a0" stroke-linecap="round" stroke-linejoin="miter"></path></svg>